<?xml version="1.0" encoding="utf-8"?>
<!-- Generator: Adobe Illustrator 19.2.1, SVG Export Plug-In . SVG Version: 6.00 Build 0)  -->
<svg version="1.1" xmlns="http://www.w3.org/2000/svg" xmlns:xlink="http://www.w3.org/1999/xlink" x="0px" y="0px"
	 viewBox="0 0 595.3 191.7" style="enable-background:new 0 0 595.3 191.7;" xml:space="preserve">
<style type="text/css">
	.st0{clip-path:url(#SVGID_2_);fill:#CDCCCC;}
	.st1{opacity:0.49;clip-path:url(#SVGID_2_);}
	.st2{clip-path:url(#SVGID_6_);fill:#CDCCCC;}
	.st3{opacity:0.49;clip-path:url(#SVGID_6_);}
	.st4{clip-path:url(#SVGID_10_);fill:#CDCCCC;}
	.st5{opacity:0.49;clip-path:url(#SVGID_10_);}
	.st6{clip-path:url(#SVGID_14_);fill:#CDCCCC;}
	.st7{clip-path:url(#SVGID_14_);}
	.st8{clip-path:url(#SVGID_19_);}
	.st9{clip-path:url(#SVGID_20_);}
	.st10{clip-path:url(#SVGID_21_);}
	.st11{clip-path:url(#SVGID_22_);fill:#CDCCCC;}
	.st12{clip-path:url(#SVGID_22_);}
	.st13{fill:#CDCCCC;}
	.st14{opacity:0.49;clip-path:url(#SVGID_14_);}
	.st15{clip-path:url(#SVGID_29_);}
	.st16{clip-path:url(#SVGID_30_);}
	.st17{clip-path:url(#SVGID_31_);}
	.st18{clip-path:url(#SVGID_32_);fill:#CDCCCC;}
	.st19{clip-path:url(#SVGID_32_);}
	.st20{clip-path:url(#SVGID_34_);fill:#CDCCCC;}
	.st21{opacity:0.49;clip-path:url(#SVGID_34_);}
	.st22{clip-path:url(#SVGID_38_);fill:#CDCCCC;}
	.st23{opacity:0.49;clip-path:url(#SVGID_38_);}
	.st24{clip-path:url(#SVGID_42_);fill:#CDCCCC;}
	.st25{opacity:0.49;clip-path:url(#SVGID_42_);}
	.st26{clip-path:url(#SVGID_46_);fill:#E24131;}
	.st27{opacity:0.49;clip-path:url(#SVGID_46_);}
	.st28{clip-path:url(#SVGID_50_);fill:#E24131;}
	.st29{opacity:0.49;clip-path:url(#SVGID_50_);}
	.st30{clip-path:url(#SVGID_54_);fill:#E24131;}
	.st31{opacity:0.49;clip-path:url(#SVGID_54_);}
	.st32{clip-path:url(#SVGID_58_);fill:#3B3734;}
	.st33{clip-path:url(#SVGID_58_);}
	.st34{clip-path:url(#SVGID_63_);}
	.st35{clip-path:url(#SVGID_64_);}
	.st36{clip-path:url(#SVGID_65_);}
	.st37{clip-path:url(#SVGID_66_);fill:#E24131;}
	.st38{clip-path:url(#SVGID_66_);}
	.st39{fill:#E24131;}
	.st40{opacity:0.49;clip-path:url(#SVGID_58_);}
	.st41{clip-path:url(#SVGID_73_);}
	.st42{clip-path:url(#SVGID_74_);}
	.st43{clip-path:url(#SVGID_75_);}
	.st44{clip-path:url(#SVGID_76_);fill:#E24131;}
	.st45{clip-path:url(#SVGID_76_);}
	.st46{clip-path:url(#SVGID_78_);fill:#3B3734;}
	.st47{opacity:0.49;clip-path:url(#SVGID_78_);}
	.st48{clip-path:url(#SVGID_82_);fill:#3B3734;}
	.st49{opacity:0.49;clip-path:url(#SVGID_82_);}
	.st50{clip-path:url(#SVGID_86_);fill:#3B3734;}
	.st51{opacity:0.49;clip-path:url(#SVGID_86_);}
</style>
<g id="Calque_1">
</g>
<g id="Calque_2">
	<g>
		<g>
			<defs>
				<polygon id="SVGID_1_" points="157.2,26.9 137.4,26.9 135.7,26.9 135.1,28 114,79.1 120.2,29.5 120.6,26.9 117.7,26.9 
					97.9,26.9 96.2,26.9 95.5,28 74.4,79.1 80.7,29.5 81.1,26.9 78.1,26.9 58.4,26.9 56,26.9 55.8,28.8 45.9,140.3 45.6,143.9 
					48.5,143.9 68.2,143.9 69.9,143.9 70.6,141.4 89,99.6 85.4,140.3 85.2,143.9 88,143.9 107.8,143.9 109.5,143.9 110.1,141.4 
					159.6,30.6 161.2,26.9 				"/>
			</defs>
			<use xlink:href="#SVGID_1_"  style="overflow:visible;fill:#CDCCCC;"/>
			<clipPath id="SVGID_2_">
				<use xlink:href="#SVGID_1_"  style="overflow:visible;"/>
			</clipPath>
			<polygon class="st0" points="157.2,26.9 137.4,26.9 135.7,26.9 135.1,28 114,79.1 120.2,29.5 120.6,26.9 117.7,26.9 97.9,26.9 
				96.2,26.9 95.5,28 74.4,79.1 80.7,29.5 81.1,26.9 78.1,26.9 58.4,26.9 56,26.9 55.8,28.8 45.9,140.3 45.6,143.9 48.5,143.9 
				68.2,143.9 69.9,143.9 70.6,141.4 89,99.6 85.4,140.3 85.2,143.9 88,143.9 107.8,143.9 109.5,143.9 110.1,141.4 159.6,30.6 
				161.2,26.9 			"/>
			<g class="st1">
				<g>
					<g>
						<defs>
							<path id="SVGID_3_" d="M596.7,109.3C345.7,127,97.3,111.6-149.7,63.4c15.2-43,30.4-86,45.6-129.1
								C119.6-14.8,345.1,5.8,574.3-3.1C581.8,34.3,589.2,71.8,596.7,109.3z"/>
						</defs>
						<use xlink:href="#SVGID_3_"  style="overflow:visible;fill:#CDCCCC;"/>
						<clipPath id="SVGID_4_">
							<use xlink:href="#SVGID_3_"  style="overflow:visible;"/>
						</clipPath>
						<g style="clip-path:url(#SVGID_4_);">
							
								<image style="overflow:visible;" width="3111" height="759" xlink:href="7A853765.png"  transform="matrix(0.24 0 0 0.24 -149.6927 -65.6129)">
							</image>
						</g>
					</g>
				</g>
			</g>
		</g>
		<g>
			<defs>
				<path id="SVGID_5_" d="M212.2,57.4c-3.9-5.1-11.3-7.7-21.8-7.7c-19.7,0-32,8.6-36.5,25.6l-10.6,39.6c-2.2,8.2-1.5,14.7,2,19.3
					c3.9,5.1,11.3,7.7,21.8,7.7c19.7,0,32-8.6,36.5-25.6l1.1-3.5l0.9-2.8h-25.1l-0.5,1.5l-1.1,3.7c-1.1,4.2-3.4,5.9-7.5,5.9
					c-1.7,0-2.9-0.4-3.3-1c-0.4-0.6-0.4-2.2,0-4l2.7-10.2h35.6l0.5-1.7l7.4-27.6C216.4,68.4,215.8,61.9,212.2,57.4z M189.5,75.1
					l-2.6,9.8h-10.5l2.3-8.4c1.1-4.1,3.4-5.9,7.6-5.9c1.7,0,2.9,0.3,3.3,0.8C189.9,72,189.9,73.4,189.5,75.1z"/>
			</defs>
			<use xlink:href="#SVGID_5_"  style="overflow:visible;fill:#CDCCCC;"/>
			<clipPath id="SVGID_6_">
				<use xlink:href="#SVGID_5_"  style="overflow:visible;"/>
			</clipPath>
			<path class="st2" d="M212.2,57.4c-3.9-5.1-11.3-7.7-21.8-7.7c-19.7,0-32,8.6-36.5,25.6l-10.6,39.6c-2.2,8.2-1.5,14.7,2,19.3
				c3.9,5.1,11.3,7.7,21.8,7.7c19.7,0,32-8.6,36.5-25.6l1.1-3.5l0.9-2.8h-25.1l-0.5,1.5l-1.1,3.7c-1.1,4.2-3.4,5.9-7.5,5.9
				c-1.7,0-2.9-0.4-3.3-1c-0.4-0.6-0.4-2.2,0-4l2.7-10.2h35.6l0.5-1.7l7.4-27.6C216.4,68.4,215.8,61.9,212.2,57.4z M189.5,75.1
				l-2.6,9.8h-10.5l2.3-8.4c1.1-4.1,3.4-5.9,7.6-5.9c1.7,0,2.9,0.3,3.3,0.8C189.9,72,189.9,73.4,189.5,75.1z"/>
			<g class="st3">
				<g>
					<g>
						<defs>
							<path id="SVGID_7_" d="M596.7,109.3C345.7,127,97.3,111.6-149.7,63.4c15.2-43,30.4-86,45.6-129.1
								C119.6-14.8,345.1,5.8,574.3-3.1C581.8,34.3,589.2,71.8,596.7,109.3z"/>
						</defs>
						<use xlink:href="#SVGID_7_"  style="overflow:visible;fill:#CDCCCC;"/>
						<clipPath id="SVGID_8_">
							<use xlink:href="#SVGID_7_"  style="overflow:visible;"/>
						</clipPath>
						<g style="clip-path:url(#SVGID_8_);">
							
								<image style="overflow:visible;" width="3111" height="759" xlink:href="7A853767.png"  transform="matrix(0.24 0 0 0.24 -149.6927 -65.6129)">
							</image>
						</g>
					</g>
				</g>
			</g>
		</g>
		<g>
			<defs>
				<path id="SVGID_9_" d="M279.5,57.4c-3.9-5.1-11.3-7.7-21.8-7.7c-19.7,0-32,8.6-36.5,25.6l-10.6,39.6c-2.2,8.2-1.5,14.7,2,19.3
					c3.9,5.1,11.3,7.7,21.8,7.7c19.7,0,32-8.6,36.5-25.6l1.1-3.5l0.9-2.8h-25.1l-0.5,1.5l-1.1,3.7c-1.1,4.2-3.4,5.9-7.5,5.9
					c-1.7,0-2.9-0.4-3.3-1c-0.4-0.6-0.4-2.2,0-4l2.6-10.2h35.6l0.5-1.7l7.4-27.6C283.6,68.4,283,61.9,279.5,57.4z M256.7,75.1
					l-2.6,9.8h-10.5l2.3-8.4c1.1-4.1,3.4-5.9,7.5-5.9c1.7,0,2.9,0.3,3.3,0.8C257.2,72,257.2,73.4,256.7,75.1z"/>
			</defs>
			<use xlink:href="#SVGID_9_"  style="overflow:visible;fill:#CDCCCC;"/>
			<clipPath id="SVGID_10_">
				<use xlink:href="#SVGID_9_"  style="overflow:visible;"/>
			</clipPath>
			<path class="st4" d="M279.5,57.4c-3.9-5.1-11.3-7.7-21.8-7.7c-19.7,0-32,8.6-36.5,25.6l-10.6,39.6c-2.2,8.2-1.5,14.7,2,19.3
				c3.9,5.1,11.3,7.7,21.8,7.7c19.7,0,32-8.6,36.5-25.6l1.1-3.5l0.9-2.8h-25.1l-0.5,1.5l-1.1,3.7c-1.1,4.2-3.4,5.9-7.5,5.9
				c-1.7,0-2.9-0.4-3.3-1c-0.4-0.6-0.4-2.2,0-4l2.6-10.2h35.6l0.5-1.7l7.4-27.6C283.6,68.4,283,61.9,279.5,57.4z M256.7,75.1
				l-2.6,9.8h-10.5l2.3-8.4c1.1-4.1,3.4-5.9,7.5-5.9c1.7,0,2.9,0.3,3.3,0.8C257.2,72,257.2,73.4,256.7,75.1z"/>
			<g class="st5">
				<g>
					<g>
						<defs>
							<path id="SVGID_11_" d="M596.7,109.3C345.7,127,97.3,111.6-149.7,63.4c15.2-43,30.4-86,45.6-129.1
								C119.6-14.8,345.1,5.8,574.3-3.1C581.8,34.3,589.2,71.8,596.7,109.3z"/>
						</defs>
						<use xlink:href="#SVGID_11_"  style="overflow:visible;fill:#CDCCCC;"/>
						<clipPath id="SVGID_12_">
							<use xlink:href="#SVGID_11_"  style="overflow:visible;"/>
						</clipPath>
						<g style="clip-path:url(#SVGID_12_);">
							
								<image style="overflow:visible;" width="3111" height="759" xlink:href="7A853762.png"  transform="matrix(0.24 0 0 0.24 -149.6927 -65.6129)">
							</image>
						</g>
					</g>
				</g>
			</g>
		</g>
		<g>
			<defs>
				<path id="SVGID_13_" d="M340.2,108.3c3.1-11.6-0.7-21.8-11.2-30.3c-8.7-7.1-12.7-13-11.6-17.1l2.1-7.9c1.1-4.1,3.4-6,7.5-6
					c1.7,0,2.9,0.3,3.3,0.9c0.5,0.6,0.5,2,0,3.8l-2.1,9l-0.9,4.3h3.4h19.8h2l0.5-3l2.1-8.4c2.2-8.2,1.5-15-2-19.6
					c-3.9-5.1-11.2-7.8-21.8-7.8c-19.7,0-32,8.6-36.5,25.6l-2.1,7.9c-3.1,11.6,0.7,21.8,11.2,30.3c8.7,7.1,12.7,13,11.6,17.1
					l-2.1,7.9c-1.1,4.1-3.4,6-7.5,6c-1.7,0-2.9-0.3-3.3-0.9c-0.5-0.6-0.5-2,0-3.8l2.1-7.5l0.9-2.8h-3.4h-19.8h-2l-0.5,1.5l-2.1,7.7
					c-2.2,8.2-1.5,14.6,2,19.2c3.9,5.1,11.2,7.6,21.8,7.6c19.7,0,32-8.7,36.5-25.7L340.2,108.3z"/>
			</defs>
			<use xlink:href="#SVGID_13_"  style="overflow:visible;fill:#CDCCCC;"/>
			<clipPath id="SVGID_14_">
				<use xlink:href="#SVGID_13_"  style="overflow:visible;"/>
			</clipPath>
			<path class="st6" d="M340.2,108.3c3.1-11.6-0.7-21.8-11.2-30.3c-8.7-7.1-12.7-13-11.6-17.1l2.1-7.9c1.1-4.1,3.4-6,7.5-6
				c1.7,0,2.9,0.3,3.3,0.9c0.5,0.6,0.5,2,0,3.8l-2.1,9l-0.9,4.3h3.4h19.8h2l0.5-3l2.1-8.4c2.2-8.2,1.5-15-2-19.6
				c-3.9-5.1-11.2-7.8-21.8-7.8c-19.7,0-32,8.6-36.5,25.6l-2.1,7.9c-3.1,11.6,0.7,21.8,11.2,30.3c8.7,7.1,12.7,13,11.6,17.1
				l-2.1,7.9c-1.1,4.1-3.4,6-7.5,6c-1.7,0-2.9-0.3-3.3-0.9c-0.5-0.6-0.5-2,0-3.8l2.1-7.5l0.9-2.8h-3.4h-19.8h-2l-0.5,1.5l-2.1,7.7
				c-2.2,8.2-1.5,14.6,2,19.2c3.9,5.1,11.2,7.6,21.8,7.6c19.7,0,32-8.7,36.5-25.7L340.2,108.3z"/>
			<g class="st7">
				<defs>
					<path id="SVGID_15_" d="M340.2,108.3c3.1-11.6-0.7-21.8-11.2-30.3c-8.7-7.1-12.7-13-11.6-17.1l2.1-7.9c1.1-4.1,3.4-6,7.5-6
						c1.7,0,2.9,0.3,3.3,0.9c0.5,0.6,0.5,2,0,3.8l-2.1,9l-0.9,4.3h3.4h19.8h2l0.5-3l2.1-8.4c2.2-8.2,1.5-15-2-19.6
						c-3.9-5.1-11.2-7.8-21.8-7.8c-19.7,0-32,8.6-36.5,25.6l-2.1,7.9c-3.1,11.6,0.7,21.8,11.2,30.3c8.7,7.1,12.7,13,11.6,17.1
						l-2.1,7.9c-1.1,4.1-3.4,6-7.5,6c-1.7,0-2.9-0.3-3.3-0.9c-0.5-0.6-0.5-2,0-3.8l2.1-7.5l0.9-2.8h-3.4h-19.8h-2l-0.5,1.5l-2.1,7.7
						c-2.2,8.2-1.5,14.6,2,19.2c3.9,5.1,11.2,7.6,21.8,7.6c19.7,0,32-8.7,36.5-25.7L340.2,108.3z"/>
				</defs>
				<defs>
					<path id="SVGID_16_" d="M413.9,57.4c-3.9-5.1-11.3-7.7-21.8-7.7c-1.7,0-3.3,0.2-4.7,0.7l5.7-20.7l0.9-2.8h-3.4h-19.8h-2
						l-0.5,1.4l-29.7,111.5l-0.9,4h3.4h19.8h2l0.5-2.9l17-63.8c1.1-4.1,3.4-6.3,7.5-6.3c1.7,0,2.9,0.2,3.3,0.8
						c0.5,0.6,0.5,1.9,0,3.7l-17,64.3l-0.9,4.2h3.4h19.8h2l0.5-2.9l17-63.8C418.1,69,417.4,62,413.9,57.4z"/>
				</defs>
				<defs>
					<path id="SVGID_17_" d="M481.2,57.4c-3.9-5.1-11.3-7.7-21.8-7.7c-19.7,0-32,8.6-36.5,25.6l-10.6,39.6c-2.2,8.2-1.5,14.7,2,19.3
						c3.9,5.1,11.3,7.7,21.8,7.7c19.7,0,32-8.6,36.5-25.6l10.6-39.6C485.3,68.4,484.7,61.9,481.2,57.4z M458.4,75.3l-10.6,39.6
						c-1.1,4.1-3.4,6-7.5,6c-1.7,0-2.9-0.3-3.3-0.9c-0.5-0.6-0.5-2,0-3.8l10.6-39.6c1.1-4.1,3.4-6,7.5-6c1.7,0,2.9,0.3,3.3,0.9
						C458.9,72.2,458.9,73.6,458.4,75.3z"/>
				</defs>
				<defs>
					<path id="SVGID_18_" d="M548.4,57.4c-3.9-5.1-11.3-7.7-21.8-7.7c-1.7,0-3.3,0.8-4.7,1.3l0.2-0.1h-25.1l-0.5,1.3l-29.7,111.6
						l-0.9,4.1H491l0.5-3.1l6.2-23.7c1.4,0.9,3.3,1,5.6,1c19.7,0,32-8.8,36.5-25.8l10.6-39.6C552.6,68.5,551.9,61.9,548.4,57.4z
						 M525.6,75.3L515,114.9c-1.1,4.1-3.4,6-7.5,6c-1.7,0-2.9-0.3-3.3-0.9c-0.5-0.6-0.5-2,0-3.8l10.6-39.6c1.1-4.1,3.4-6,7.5-6
						c1.7,0,2.9,0.3,3.3,0.9C526.1,72.2,526.1,73.6,525.6,75.3z"/>
				</defs>
				<use xlink:href="#SVGID_15_"  style="overflow:visible;fill:#CDCCCC;"/>
				<use xlink:href="#SVGID_16_"  style="overflow:visible;fill:#CDCCCC;"/>
				<use xlink:href="#SVGID_17_"  style="overflow:visible;fill:#CDCCCC;"/>
				<use xlink:href="#SVGID_18_"  style="overflow:visible;fill:#CDCCCC;"/>
				<clipPath id="SVGID_19_">
					<use xlink:href="#SVGID_15_"  style="overflow:visible;"/>
				</clipPath>
				<clipPath id="SVGID_20_" class="st8">
					<use xlink:href="#SVGID_16_"  style="overflow:visible;"/>
				</clipPath>
				<clipPath id="SVGID_21_" class="st9">
					<use xlink:href="#SVGID_17_"  style="overflow:visible;"/>
				</clipPath>
				<clipPath id="SVGID_22_" class="st10">
					<use xlink:href="#SVGID_18_"  style="overflow:visible;"/>
				</clipPath>
				<polygon class="st11" points="157.2,26.9 137.4,26.9 135.7,26.9 135.1,28 114,79.1 120.2,29.5 120.6,26.9 117.7,26.9 97.9,26.9 
					96.2,26.9 95.5,28 74.4,79.1 80.7,29.5 81.1,26.9 78.1,26.9 58.4,26.9 56,26.9 55.8,28.8 45.9,140.3 45.6,143.9 48.5,143.9 
					68.2,143.9 69.9,143.9 70.6,141.4 89,99.6 85.4,140.3 85.2,143.9 88,143.9 107.8,143.9 109.5,143.9 110.1,141.4 159.6,30.6 
					161.2,26.9 				"/>
				<g class="st12">
					<path class="st13" d="M212.2,57.4c-3.9-5.1-11.3-7.7-21.8-7.7c-19.7,0-32,8.6-36.5,25.6l-10.6,39.6c-2.2,8.2-1.5,14.7,2,19.3
						c3.9,5.1,11.3,7.7,21.8,7.7c19.7,0,32-8.6,36.5-25.6l1.1-3.5l0.9-2.8h-25.1l-0.5,1.5l-1.1,3.7c-1.1,4.2-3.4,5.9-7.5,5.9
						c-1.7,0-2.9-0.4-3.3-1c-0.4-0.6-0.4-2.2,0-4l2.7-10.2h35.6l0.5-1.7l7.4-27.6C216.4,68.4,215.8,61.9,212.2,57.4z M189.5,75.1
						l-2.6,9.8h-10.5l2.3-8.4c1.1-4.1,3.4-5.9,7.6-5.9c1.7,0,2.9,0.3,3.3,0.8C189.9,72,189.9,73.4,189.5,75.1z"/>
					<path class="st13" d="M279.5,57.4c-3.9-5.1-11.3-7.7-21.8-7.7c-19.7,0-32,8.6-36.5,25.6l-10.6,39.6c-2.2,8.2-1.5,14.7,2,19.3
						c3.9,5.1,11.3,7.7,21.8,7.7c19.7,0,32-8.6,36.5-25.6l1.1-3.5l0.9-2.8h-25.1l-0.5,1.5l-1.1,3.7c-1.1,4.2-3.4,5.9-7.5,5.9
						c-1.7,0-2.9-0.4-3.3-1c-0.4-0.6-0.4-2.2,0-4l2.6-10.2h35.6l0.5-1.7l7.4-27.6C283.6,68.4,283,61.9,279.5,57.4z M256.7,75.1
						l-2.6,9.8h-10.5l2.3-8.4c1.1-4.1,3.4-5.9,7.5-5.9c1.7,0,2.9,0.3,3.3,0.8C257.2,72,257.2,73.4,256.7,75.1z"/>
				</g>
			</g>
			<g class="st14">
				<g>
					<g>
						<defs>
							<path id="SVGID_23_" d="M596.7,109.3C345.7,127,97.3,111.6-149.7,63.4c15.2-43,30.4-86,45.6-129.1
								C119.6-14.8,345.1,5.8,574.3-3.1C581.8,34.3,589.2,71.8,596.7,109.3z"/>
						</defs>
						<use xlink:href="#SVGID_23_"  style="overflow:visible;fill:#CDCCCC;"/>
						<clipPath id="SVGID_24_">
							<use xlink:href="#SVGID_23_"  style="overflow:visible;"/>
						</clipPath>
						<g style="clip-path:url(#SVGID_24_);">
							
								<image style="overflow:visible;" width="3111" height="759" xlink:href="7A853763.png"  transform="matrix(0.24 0 0 0.24 -149.6927 -65.6129)">
							</image>
						</g>
					</g>
				</g>
			</g>
			<g class="st7">
				<defs>
					<path id="SVGID_25_" d="M340.2,108.3c3.1-11.6-0.7-21.8-11.2-30.3c-8.7-7.1-12.7-13-11.6-17.1l2.1-7.9c1.1-4.1,3.4-6,7.5-6
						c1.7,0,2.9,0.3,3.3,0.9c0.5,0.6,0.5,2,0,3.8l-2.1,9l-0.9,4.3h3.4h19.8h2l0.5-3l2.1-8.4c2.2-8.2,1.5-15-2-19.6
						c-3.9-5.1-11.2-7.8-21.8-7.8c-19.7,0-32,8.6-36.5,25.6l-2.1,7.9c-3.1,11.6,0.7,21.8,11.2,30.3c8.7,7.1,12.7,13,11.6,17.1
						l-2.1,7.9c-1.1,4.1-3.4,6-7.5,6c-1.7,0-2.9-0.3-3.3-0.9c-0.5-0.6-0.5-2,0-3.8l2.1-7.5l0.9-2.8h-3.4h-19.8h-2l-0.5,1.5l-2.1,7.7
						c-2.2,8.2-1.5,14.6,2,19.2c3.9,5.1,11.2,7.6,21.8,7.6c19.7,0,32-8.7,36.5-25.7L340.2,108.3z"/>
				</defs>
				<defs>
					<path id="SVGID_26_" d="M413.9,57.4c-3.9-5.1-11.3-7.7-21.8-7.7c-1.7,0-3.3,0.2-4.7,0.7l5.7-20.7l0.9-2.8h-3.4h-19.8h-2
						l-0.5,1.4l-29.7,111.5l-0.9,4h3.4h19.8h2l0.5-2.9l17-63.8c1.1-4.1,3.4-6.3,7.5-6.3c1.7,0,2.9,0.2,3.3,0.8
						c0.5,0.6,0.5,1.9,0,3.7l-17,64.3l-0.9,4.2h3.4h19.8h2l0.5-2.9l17-63.8C418.1,69,417.4,62,413.9,57.4z"/>
				</defs>
				<defs>
					<path id="SVGID_27_" d="M481.2,57.4c-3.9-5.1-11.3-7.7-21.8-7.7c-19.7,0-32,8.6-36.5,25.6l-10.6,39.6c-2.2,8.2-1.5,14.7,2,19.3
						c3.9,5.1,11.3,7.7,21.8,7.7c19.7,0,32-8.6,36.5-25.6l10.6-39.6C485.3,68.4,484.7,61.9,481.2,57.4z M458.4,75.3l-10.6,39.6
						c-1.1,4.1-3.4,6-7.5,6c-1.7,0-2.9-0.3-3.3-0.9c-0.5-0.6-0.5-2,0-3.8l10.6-39.6c1.1-4.1,3.4-6,7.5-6c1.7,0,2.9,0.3,3.3,0.9
						C458.9,72.2,458.9,73.6,458.4,75.3z"/>
				</defs>
				<defs>
					<path id="SVGID_28_" d="M548.4,57.4c-3.9-5.1-11.3-7.7-21.8-7.7c-1.7,0-3.3,0.8-4.7,1.3l0.2-0.1h-25.1l-0.5,1.3l-29.7,111.6
						l-0.9,4.1H491l0.5-3.1l6.2-23.7c1.4,0.9,3.3,1,5.6,1c19.7,0,32-8.8,36.5-25.8l10.6-39.6C552.6,68.5,551.9,61.9,548.4,57.4z
						 M525.6,75.3L515,114.9c-1.1,4.1-3.4,6-7.5,6c-1.7,0-2.9-0.3-3.3-0.9c-0.5-0.6-0.5-2,0-3.8l10.6-39.6c1.1-4.1,3.4-6,7.5-6
						c1.7,0,2.9,0.3,3.3,0.9C526.1,72.2,526.1,73.6,525.6,75.3z"/>
				</defs>
				<use xlink:href="#SVGID_25_"  style="overflow:visible;fill:#CDCCCC;"/>
				<use xlink:href="#SVGID_26_"  style="overflow:visible;fill:#CDCCCC;"/>
				<use xlink:href="#SVGID_27_"  style="overflow:visible;fill:#CDCCCC;"/>
				<use xlink:href="#SVGID_28_"  style="overflow:visible;fill:#CDCCCC;"/>
				<clipPath id="SVGID_29_">
					<use xlink:href="#SVGID_25_"  style="overflow:visible;"/>
				</clipPath>
				<clipPath id="SVGID_30_" class="st15">
					<use xlink:href="#SVGID_26_"  style="overflow:visible;"/>
				</clipPath>
				<clipPath id="SVGID_31_" class="st16">
					<use xlink:href="#SVGID_27_"  style="overflow:visible;"/>
				</clipPath>
				<clipPath id="SVGID_32_" class="st17">
					<use xlink:href="#SVGID_28_"  style="overflow:visible;"/>
				</clipPath>
				<polygon class="st18" points="157.2,26.9 137.4,26.9 135.7,26.9 135.1,28 114,79.1 120.2,29.5 120.6,26.9 117.7,26.9 97.9,26.9 
					96.2,26.9 95.5,28 74.4,79.1 80.7,29.5 81.1,26.9 78.1,26.9 58.4,26.9 56,26.9 55.8,28.8 45.9,140.3 45.6,143.9 48.5,143.9 
					68.2,143.9 69.9,143.9 70.6,141.4 89,99.6 85.4,140.3 85.2,143.9 88,143.9 107.8,143.9 109.5,143.9 110.1,141.4 159.6,30.6 
					161.2,26.9 				"/>
				<g class="st19">
					<path class="st13" d="M212.2,57.4c-3.9-5.1-11.3-7.7-21.8-7.7c-19.7,0-32,8.6-36.5,25.6l-10.6,39.6c-2.2,8.2-1.5,14.7,2,19.3
						c3.9,5.1,11.3,7.7,21.8,7.7c19.7,0,32-8.6,36.5-25.6l1.1-3.5l0.9-2.8h-25.1l-0.5,1.5l-1.1,3.7c-1.1,4.2-3.4,5.9-7.5,5.9
						c-1.7,0-2.9-0.4-3.3-1c-0.4-0.6-0.4-2.2,0-4l2.7-10.2h35.6l0.5-1.7l7.4-27.6C216.4,68.4,215.8,61.9,212.2,57.4z M189.5,75.1
						l-2.6,9.8h-10.5l2.3-8.4c1.1-4.1,3.4-5.9,7.6-5.9c1.7,0,2.9,0.3,3.3,0.8C189.9,72,189.9,73.4,189.5,75.1z"/>
					<path class="st13" d="M279.5,57.4c-3.9-5.1-11.3-7.7-21.8-7.7c-19.7,0-32,8.6-36.5,25.6l-10.6,39.6c-2.2,8.2-1.5,14.7,2,19.3
						c3.9,5.1,11.3,7.7,21.8,7.7c19.7,0,32-8.6,36.5-25.6l1.1-3.5l0.9-2.8h-25.1l-0.5,1.5l-1.1,3.7c-1.1,4.2-3.4,5.9-7.5,5.9
						c-1.7,0-2.9-0.4-3.3-1c-0.4-0.6-0.4-2.2,0-4l2.6-10.2h35.6l0.5-1.7l7.4-27.6C283.6,68.4,283,61.9,279.5,57.4z M256.7,75.1
						l-2.6,9.8h-10.5l2.3-8.4c1.1-4.1,3.4-5.9,7.5-5.9c1.7,0,2.9,0.3,3.3,0.8C257.2,72,257.2,73.4,256.7,75.1z"/>
				</g>
			</g>
		</g>
		<g>
			<defs>
				<path id="SVGID_33_" d="M413.9,57.4c-3.9-5.1-11.3-7.7-21.8-7.7c-1.7,0-3.3,0.2-4.7,0.7l5.7-20.7l0.9-2.8h-3.4h-19.8h-2
					l-0.5,1.4l-29.7,111.5l-0.9,4h3.4h19.8h2l0.5-2.9l17-63.8c1.1-4.1,3.4-6.3,7.5-6.3c1.7,0,2.9,0.2,3.3,0.8c0.5,0.6,0.5,1.9,0,3.7
					l-17,64.3l-0.9,4.2h3.4h19.8h2l0.5-2.9l17-63.8C418.1,69,417.4,62,413.9,57.4z"/>
			</defs>
			<use xlink:href="#SVGID_33_"  style="overflow:visible;fill:#CDCCCC;"/>
			<clipPath id="SVGID_34_">
				<use xlink:href="#SVGID_33_"  style="overflow:visible;"/>
			</clipPath>
			<path class="st20" d="M413.9,57.4c-3.9-5.1-11.3-7.7-21.8-7.7c-1.7,0-3.3,0.2-4.7,0.7l5.7-20.7l0.9-2.8h-3.4h-19.8h-2l-0.5,1.4
				l-29.7,111.5l-0.9,4h3.4h19.8h2l0.5-2.9l17-63.8c1.1-4.1,3.4-6.3,7.5-6.3c1.7,0,2.9,0.2,3.3,0.8c0.5,0.6,0.5,1.9,0,3.7l-17,64.3
				l-0.9,4.2h3.4h19.8h2l0.5-2.9l17-63.8C418.1,69,417.4,62,413.9,57.4z"/>
			<g class="st21">
				<g>
					<g>
						<defs>
							<path id="SVGID_35_" d="M596.7,109.3C345.7,127,97.3,111.6-149.7,63.4c15.2-43,30.4-86,45.6-129.1
								C119.6-14.8,345.1,5.8,574.3-3.1C581.8,34.3,589.2,71.8,596.7,109.3z"/>
						</defs>
						<use xlink:href="#SVGID_35_"  style="overflow:visible;fill:#CDCCCC;"/>
						<clipPath id="SVGID_36_">
							<use xlink:href="#SVGID_35_"  style="overflow:visible;"/>
						</clipPath>
						<g style="clip-path:url(#SVGID_36_);">
							
								<image style="overflow:visible;" width="3111" height="759" xlink:href="7A85376D.png"  transform="matrix(0.24 0 0 0.24 -149.6927 -65.6129)">
							</image>
						</g>
					</g>
				</g>
			</g>
		</g>
		<g>
			<defs>
				<path id="SVGID_37_" d="M481.2,57.4c-3.9-5.1-11.3-7.7-21.8-7.7c-19.7,0-32,8.6-36.5,25.6l-10.6,39.6c-2.2,8.2-1.5,14.7,2,19.3
					c3.9,5.1,11.3,7.7,21.8,7.7c19.7,0,32-8.6,36.5-25.6l10.6-39.6C485.3,68.4,484.7,61.9,481.2,57.4z M458.4,75.3l-10.6,39.6
					c-1.1,4.1-3.4,6-7.5,6c-1.7,0-2.9-0.3-3.3-0.9c-0.5-0.6-0.5-2,0-3.8l10.6-39.6c1.1-4.1,3.4-6,7.5-6c1.7,0,2.9,0.3,3.3,0.9
					C458.9,72.2,458.9,73.6,458.4,75.3z"/>
			</defs>
			<use xlink:href="#SVGID_37_"  style="overflow:visible;fill:#CDCCCC;"/>
			<clipPath id="SVGID_38_">
				<use xlink:href="#SVGID_37_"  style="overflow:visible;"/>
			</clipPath>
			<path class="st22" d="M481.2,57.4c-3.9-5.1-11.3-7.7-21.8-7.7c-19.7,0-32,8.6-36.5,25.6l-10.6,39.6c-2.2,8.2-1.5,14.7,2,19.3
				c3.9,5.1,11.3,7.7,21.8,7.7c19.7,0,32-8.6,36.5-25.6l10.6-39.6C485.3,68.4,484.7,61.9,481.2,57.4z M458.4,75.3l-10.6,39.6
				c-1.1,4.1-3.4,6-7.5,6c-1.7,0-2.9-0.3-3.3-0.9c-0.5-0.6-0.5-2,0-3.8l10.6-39.6c1.1-4.1,3.4-6,7.5-6c1.7,0,2.9,0.3,3.3,0.9
				C458.9,72.2,458.9,73.6,458.4,75.3z"/>
			<g class="st23">
				<g>
					<g>
						<defs>
							<path id="SVGID_39_" d="M596.7,109.3C345.7,127,97.3,111.6-149.7,63.4c15.2-43,30.4-86,45.6-129.1
								C119.6-14.8,345.1,5.8,574.3-3.1C581.8,34.3,589.2,71.8,596.7,109.3z"/>
						</defs>
						<use xlink:href="#SVGID_39_"  style="overflow:visible;fill:#CDCCCC;"/>
						<clipPath id="SVGID_40_">
							<use xlink:href="#SVGID_39_"  style="overflow:visible;"/>
						</clipPath>
						<g style="clip-path:url(#SVGID_40_);">
							
								<image style="overflow:visible;" width="3111" height="759" xlink:href="7A85376F.png"  transform="matrix(0.24 0 0 0.24 -149.6927 -65.6129)">
							</image>
						</g>
					</g>
				</g>
			</g>
		</g>
		<g>
			<defs>
				<path id="SVGID_41_" d="M548.4,57.4c-3.9-5.1-11.3-7.7-21.8-7.7c-1.7,0-3.3,0.8-4.7,1.3l0.2-0.1h-25.1l-0.5,1.3l-29.7,111.6
					l-0.9,4.1H491l0.5-3.1l6.2-23.7c1.4,0.9,3.3,1,5.6,1c19.7,0,32-8.8,36.5-25.8l10.6-39.6C552.6,68.5,551.9,61.9,548.4,57.4z
					 M525.6,75.3L515,114.9c-1.1,4.1-3.4,6-7.5,6c-1.7,0-2.9-0.3-3.3-0.9c-0.5-0.6-0.5-2,0-3.8l10.6-39.6c1.1-4.1,3.4-6,7.5-6
					c1.7,0,2.9,0.3,3.3,0.9C526.1,72.2,526.1,73.6,525.6,75.3z"/>
			</defs>
			<use xlink:href="#SVGID_41_"  style="overflow:visible;fill:#CDCCCC;"/>
			<clipPath id="SVGID_42_">
				<use xlink:href="#SVGID_41_"  style="overflow:visible;"/>
			</clipPath>
			<path class="st24" d="M548.4,57.4c-3.9-5.1-11.3-7.7-21.8-7.7c-1.7,0-3.3,0.8-4.7,1.3l0.2-0.1h-25.1l-0.5,1.3l-29.7,111.6
				l-0.9,4.1H491l0.5-3.1l6.2-23.7c1.4,0.9,3.3,1,5.6,1c19.7,0,32-8.8,36.5-25.8l10.6-39.6C552.6,68.5,551.9,61.9,548.4,57.4z
				 M525.6,75.3L515,114.9c-1.1,4.1-3.4,6-7.5,6c-1.7,0-2.9-0.3-3.3-0.9c-0.5-0.6-0.5-2,0-3.8l10.6-39.6c1.1-4.1,3.4-6,7.5-6
				c1.7,0,2.9,0.3,3.3,0.9C526.1,72.2,526.1,73.6,525.6,75.3z"/>
			<g class="st25">
				<g>
					<g>
						<defs>
							<path id="SVGID_43_" d="M596.7,109.3C345.7,127,97.3,111.6-149.7,63.4c15.2-43,30.4-86,45.6-129.1
								C119.6-14.8,345.1,5.8,574.3-3.1C581.8,34.3,589.2,71.8,596.7,109.3z"/>
						</defs>
						<use xlink:href="#SVGID_43_"  style="overflow:visible;fill:#CDCCCC;"/>
						<clipPath id="SVGID_44_">
							<use xlink:href="#SVGID_43_"  style="overflow:visible;"/>
						</clipPath>
						<g style="clip-path:url(#SVGID_44_);">
							
								<image style="overflow:visible;" width="3111" height="759" xlink:href="7A853760.png"  transform="matrix(0.24 0 0 0.24 -149.6927 -65.6129)">
							</image>
						</g>
					</g>
				</g>
			</g>
		</g>
		<g>
			<defs>
				<polygon id="SVGID_45_" points="155.2,23.9 135.4,23.9 133.7,23.9 133.1,25.5 112,76.9 118.2,26.8 118.6,23.9 115.7,23.9 
					95.9,23.9 94.2,23.9 93.5,25.5 72.4,76.9 78.7,26.8 79.1,23.9 76.1,23.9 56.4,23.9 54,23.9 53.8,26.3 43.9,137.6 43.6,140.9 
					46.5,140.9 66.2,140.9 67.9,140.9 68.6,138.9 87,97.3 83.4,137.7 83.2,140.9 86,140.9 105.8,140.9 107.5,140.9 108.1,138.9 
					157.6,27.8 159.2,23.9 				"/>
			</defs>
			<clipPath id="SVGID_46_">
				<use xlink:href="#SVGID_45_"  style="overflow:visible;"/>
			</clipPath>
			<polygon class="st26" points="155.2,23.9 135.4,23.9 133.7,23.9 133.1,25.5 112,76.9 118.2,26.8 118.6,23.9 115.7,23.9 
				95.9,23.9 94.2,23.9 93.5,25.5 72.4,76.9 78.7,26.8 79.1,23.9 76.1,23.9 56.4,23.9 54,23.9 53.8,26.3 43.9,137.6 43.6,140.9 
				46.5,140.9 66.2,140.9 67.9,140.9 68.6,138.9 87,97.3 83.4,137.7 83.2,140.9 86,140.9 105.8,140.9 107.5,140.9 108.1,138.9 
				157.6,27.8 159.2,23.9 			"/>
			<g class="st27">
				<g>
					<g>
						<defs>
							<path id="SVGID_47_" d="M594.7,107.3C343.7,125,95.3,109.6-151.7,61.4c15.2-43,30.4-86,45.6-129.1
								C117.6-16.8,343.1,3.8,572.3-5.1C579.8,32.3,587.2,69.8,594.7,107.3z"/>
						</defs>
						<clipPath id="SVGID_48_">
							<use xlink:href="#SVGID_47_"  style="overflow:visible;"/>
						</clipPath>
						<g style="clip-path:url(#SVGID_48_);">
							
								<image style="overflow:visible;" width="3111" height="759" xlink:href="7A853761.png"  transform="matrix(0.24 0 0 0.24 -151.6927 -67.6129)">
							</image>
						</g>
					</g>
				</g>
			</g>
		</g>
		<g>
			<defs>
				<path id="SVGID_49_" d="M210.2,55.4c-3.9-5.1-11.3-7.7-21.8-7.7c-19.7,0-32,8.6-36.5,25.6l-10.6,39.6c-2.2,8.2-1.5,14.7,2,19.3
					c3.9,5.1,11.3,7.7,21.8,7.7c19.7,0,32-8.6,36.5-25.6l1.1-4l0.9-3.3h-25.1l-0.5,2l-1.1,4c-1.1,4.2-3.4,6-7.5,6
					c-1.7,0-2.9-0.3-3.3-0.9c-0.4-0.6-0.4-2.7,0-4.4l2.7-10.6h35.6l0.5-1.2l7.4-27.3C214.4,66.1,213.8,59.9,210.2,55.4z M187.5,72.6
					l-2.6,9.3h-10.5l2.3-7.9c1.1-4.1,3.4-5.6,7.6-5.6c1.7,0,2.9,0.2,3.3,0.7C187.9,69.7,187.9,70.9,187.5,72.6z"/>
			</defs>
			<clipPath id="SVGID_50_">
				<use xlink:href="#SVGID_49_"  style="overflow:visible;"/>
			</clipPath>
			<path class="st28" d="M210.2,55.4c-3.9-5.1-11.3-7.7-21.8-7.7c-19.7,0-32,8.6-36.5,25.6l-10.6,39.6c-2.2,8.2-1.5,14.7,2,19.3
				c3.9,5.1,11.3,7.7,21.8,7.7c19.7,0,32-8.6,36.5-25.6l1.1-4l0.9-3.3h-25.1l-0.5,2l-1.1,4c-1.1,4.2-3.4,6-7.5,6
				c-1.7,0-2.9-0.3-3.3-0.9c-0.4-0.6-0.4-2.7,0-4.4l2.7-10.6h35.6l0.5-1.2l7.4-27.3C214.4,66.1,213.8,59.9,210.2,55.4z M187.5,72.6
				l-2.6,9.3h-10.5l2.3-7.9c1.1-4.1,3.4-5.6,7.6-5.6c1.7,0,2.9,0.2,3.3,0.7C187.9,69.7,187.9,70.9,187.5,72.6z"/>
			<g class="st29">
				<g>
					<g>
						<defs>
							<path id="SVGID_51_" d="M594.7,107.3C343.7,125,95.3,109.6-151.7,61.4c15.2-43,30.4-86,45.6-129.1
								C117.6-16.8,343.1,3.8,572.3-5.1C579.8,32.3,587.2,69.8,594.7,107.3z"/>
						</defs>
						<clipPath id="SVGID_52_">
							<use xlink:href="#SVGID_51_"  style="overflow:visible;"/>
						</clipPath>
						<g style="clip-path:url(#SVGID_52_);">
							
								<image style="overflow:visible;" width="3111" height="759" xlink:href="7A853766.png"  transform="matrix(0.24 0 0 0.24 -151.6927 -67.6129)">
							</image>
						</g>
					</g>
				</g>
			</g>
		</g>
		<g>
			<defs>
				<path id="SVGID_53_" d="M277.5,55.4c-3.9-5.1-11.3-7.7-21.8-7.7c-19.7,0-32,8.6-36.5,25.6l-10.6,39.6c-2.2,8.2-1.5,14.7,2,19.3
					c3.9,5.1,11.3,7.7,21.8,7.7c19.7,0,32-8.6,36.5-25.6l1.1-4l0.9-3.3h-25.1l-0.5,2l-1.1,4c-1.1,4.2-3.4,6-7.5,6
					c-1.7,0-2.9-0.3-3.3-0.9c-0.4-0.6-0.4-2.7,0-4.4l2.6-10.6h35.6l0.5-1.2l7.4-27.3C281.6,66.1,281,59.9,277.5,55.4z M254.7,72.6
					l-2.6,9.3h-10.5l2.3-7.9c1.1-4.1,3.4-5.6,7.5-5.6c1.7,0,2.9,0.2,3.3,0.7C255.2,69.7,255.2,70.9,254.7,72.6z"/>
			</defs>
			<clipPath id="SVGID_54_">
				<use xlink:href="#SVGID_53_"  style="overflow:visible;"/>
			</clipPath>
			<path class="st30" d="M277.5,55.4c-3.9-5.1-11.3-7.7-21.8-7.7c-19.7,0-32,8.6-36.5,25.6l-10.6,39.6c-2.2,8.2-1.5,14.7,2,19.3
				c3.9,5.1,11.3,7.7,21.8,7.7c19.7,0,32-8.6,36.5-25.6l1.1-4l0.9-3.3h-25.1l-0.5,2l-1.1,4c-1.1,4.2-3.4,6-7.5,6
				c-1.7,0-2.9-0.3-3.3-0.9c-0.4-0.6-0.4-2.7,0-4.4l2.6-10.6h35.6l0.5-1.2l7.4-27.3C281.6,66.1,281,59.9,277.5,55.4z M254.7,72.6
				l-2.6,9.3h-10.5l2.3-7.9c1.1-4.1,3.4-5.6,7.5-5.6c1.7,0,2.9,0.2,3.3,0.7C255.2,69.7,255.2,70.9,254.7,72.6z"/>
			<g class="st31">
				<g>
					<g>
						<defs>
							<path id="SVGID_55_" d="M594.7,107.3C343.7,125,95.3,109.6-151.7,61.4c15.2-43,30.4-86,45.6-129.1
								C117.6-16.8,343.1,3.8,572.3-5.1C579.8,32.3,587.2,69.8,594.7,107.3z"/>
						</defs>
						<clipPath id="SVGID_56_">
							<use xlink:href="#SVGID_55_"  style="overflow:visible;"/>
						</clipPath>
						<g style="clip-path:url(#SVGID_56_);">
							
								<image style="overflow:visible;" width="3111" height="759" xlink:href="B54101AE.png"  transform="matrix(0.24 0 0 0.24 -151.6927 -67.6129)">
							</image>
						</g>
					</g>
				</g>
			</g>
		</g>
		<g>
			<defs>
				<path id="SVGID_57_" d="M338.2,106.3c3.1-11.6-0.7-21.8-11.2-30.3c-8.7-7.1-12.7-13-11.6-17.1l2.1-7.9c1.1-4.1,3.4-6,7.5-6
					c1.7,0,2.9,0.3,3.3,0.9c0.5,0.6,0.5,2,0,3.8l-2.1,8.5l-0.9,3.8h3.4h19.8h2l0.5-2.5l2.1-8.2c2.2-8.2,1.5-14.9-2-19.4
					c-3.9-5.1-11.2-7.7-21.8-7.7c-19.7,0-32,8.6-36.5,25.6l-2.1,7.9c-3.1,11.6,0.7,21.8,11.2,30.3c8.7,7.1,12.7,13,11.6,17.1
					l-2.1,7.9c-1.1,4.1-3.4,6-7.5,6c-1.7,0-2.9-0.3-3.3-0.9c-0.5-0.6-0.5-2,0-3.8l2.1-8l0.9-3.3h-3.4h-19.8h-2l-0.5,2l-2.1,8
					c-2.2,8.2-1.5,14.7,2,19.3c3.9,5.1,11.2,7.7,21.8,7.7c19.7,0,32-8.6,36.5-25.6L338.2,106.3z"/>
			</defs>
			<clipPath id="SVGID_58_">
				<use xlink:href="#SVGID_57_"  style="overflow:visible;"/>
			</clipPath>
			<path class="st32" d="M338.2,106.3c3.1-11.6-0.7-21.8-11.2-30.3c-8.7-7.1-12.7-13-11.6-17.1l2.1-7.9c1.1-4.1,3.4-6,7.5-6
				c1.7,0,2.9,0.3,3.3,0.9c0.5,0.6,0.5,2,0,3.8l-2.1,8.5l-0.9,3.8h3.4h19.8h2l0.5-2.5l2.1-8.2c2.2-8.2,1.5-14.9-2-19.4
				c-3.9-5.1-11.2-7.7-21.8-7.7c-19.7,0-32,8.6-36.5,25.6l-2.1,7.9c-3.1,11.6,0.7,21.8,11.2,30.3c8.7,7.1,12.7,13,11.6,17.1
				l-2.1,7.9c-1.1,4.1-3.4,6-7.5,6c-1.7,0-2.9-0.3-3.3-0.9c-0.5-0.6-0.5-2,0-3.8l2.1-8l0.9-3.3h-3.4h-19.8h-2l-0.5,2l-2.1,8
				c-2.2,8.2-1.5,14.7,2,19.3c3.9,5.1,11.2,7.7,21.8,7.7c19.7,0,32-8.6,36.5-25.6L338.2,106.3z"/>
			<g class="st33">
				<defs>
					<path id="SVGID_59_" d="M338.2,106.3c3.1-11.6-0.7-21.8-11.2-30.3c-8.7-7.1-12.7-13-11.6-17.1l2.1-7.9c1.1-4.1,3.4-6,7.5-6
						c1.7,0,2.9,0.3,3.3,0.9c0.5,0.6,0.5,2,0,3.8l-2.1,8.5l-0.9,3.8h3.4h19.8h2l0.5-2.5l2.1-8.2c2.2-8.2,1.5-14.9-2-19.4
						c-3.9-5.1-11.2-7.7-21.8-7.7c-19.7,0-32,8.6-36.5,25.6l-2.1,7.9c-3.1,11.6,0.7,21.8,11.2,30.3c8.7,7.1,12.7,13,11.6,17.1
						l-2.1,7.9c-1.1,4.1-3.4,6-7.5,6c-1.7,0-2.9-0.3-3.3-0.9c-0.5-0.6-0.5-2,0-3.8l2.1-8l0.9-3.3h-3.4h-19.8h-2l-0.5,2l-2.1,8
						c-2.2,8.2-1.5,14.7,2,19.3c3.9,5.1,11.2,7.7,21.8,7.7c19.7,0,32-8.6,36.5-25.6L338.2,106.3z"/>
				</defs>
				<defs>
					<path id="SVGID_60_" d="M411.9,55.4c-3.9-5.1-11.3-7.7-21.8-7.7c-1.7,0-3.3,0.2-4.7,0.7l5.7-21.2l0.9-3.3h-3.4h-19.8h-2
						l-0.5,1.9l-29.7,111.3l-0.9,3.8h3.4h19.8h2l0.5-2.4l17-63.5c1.1-4.1,3.4-6.1,7.5-6.1c1.7,0,2.9,0.3,3.3,0.8
						c0.5,0.6,0.5,2,0,3.7l-17,63.8l-0.9,3.8h3.4h19.8h2l0.5-2.4l17-63.5C416.1,66.7,415.4,60,411.9,55.4z"/>
				</defs>
				<defs>
					<path id="SVGID_61_" d="M479.2,55.4c-3.9-5.1-11.3-7.7-21.8-7.7c-19.7,0-32,8.6-36.5,25.6l-10.6,39.6c-2.2,8.2-1.5,14.7,2,19.3
						c3.9,5.1,11.3,7.7,21.8,7.7c19.7,0,32-8.6,36.5-25.6l10.6-39.6C483.3,66.4,482.7,59.9,479.2,55.4z M456.4,73.3l-10.6,39.6
						c-1.1,4.1-3.4,6-7.5,6c-1.7,0-2.9-0.3-3.3-0.9c-0.5-0.6-0.5-2,0-3.8l10.6-39.6c1.1-4.1,3.4-6,7.5-6c1.7,0,2.9,0.3,3.3,0.9
						C456.9,70.2,456.9,71.6,456.4,73.3z"/>
				</defs>
				<defs>
					<path id="SVGID_62_" d="M546.4,55.4c-3.9-5.1-11.3-7.7-21.8-7.7c-1.7,0-3.3,0.3-4.7,0.8l0.2-0.6h-25.1l-0.5,1.8L464.7,161
						l-0.9,3.9H489l0.5-2.6l6.2-23.5c1.4,0.9,3.3,1.1,5.6,1.1c19.7,0,32-8.7,36.5-25.7l10.6-39.6C550.6,66.5,549.9,59.9,546.4,55.4z
						 M523.6,73.3L513,112.9c-1.1,4.1-3.4,6-7.5,6c-1.7,0-2.9-0.3-3.3-0.9c-0.5-0.6-0.5-2,0-3.8l10.6-39.6c1.1-4.1,3.4-6,7.5-6
						c1.7,0,2.9,0.3,3.3,0.9C524.1,70.2,524.1,71.6,523.6,73.3z"/>
				</defs>
				<clipPath id="SVGID_63_">
					<use xlink:href="#SVGID_59_"  style="overflow:visible;"/>
				</clipPath>
				<clipPath id="SVGID_64_" class="st34">
					<use xlink:href="#SVGID_60_"  style="overflow:visible;"/>
				</clipPath>
				<clipPath id="SVGID_65_" class="st35">
					<use xlink:href="#SVGID_61_"  style="overflow:visible;"/>
				</clipPath>
				<clipPath id="SVGID_66_" class="st36">
					<use xlink:href="#SVGID_62_"  style="overflow:visible;"/>
				</clipPath>
				<polygon class="st37" points="155.2,23.9 135.4,23.9 133.7,23.9 133.1,25.5 112,76.9 118.2,26.8 118.6,23.9 115.7,23.9 
					95.9,23.9 94.2,23.9 93.5,25.5 72.4,76.9 78.7,26.8 79.1,23.9 76.1,23.9 56.4,23.9 54,23.9 53.8,26.3 43.9,137.6 43.6,140.9 
					46.5,140.9 66.2,140.9 67.9,140.9 68.6,138.9 87,97.3 83.4,137.7 83.2,140.9 86,140.9 105.8,140.9 107.5,140.9 108.1,138.9 
					157.6,27.8 159.2,23.9 				"/>
				<g class="st38">
					<path class="st39" d="M210.2,55.4c-3.9-5.1-11.3-7.7-21.8-7.7c-19.7,0-32,8.6-36.5,25.6l-10.6,39.6c-2.2,8.2-1.5,14.7,2,19.3
						c3.9,5.1,11.3,7.7,21.8,7.7c19.7,0,32-8.6,36.5-25.6l1.1-4l0.9-3.3h-25.1l-0.5,2l-1.1,4c-1.1,4.2-3.4,6-7.5,6
						c-1.7,0-2.9-0.3-3.3-0.9c-0.4-0.6-0.4-2.7,0-4.4l2.7-10.6h35.6l0.5-1.2l7.4-27.3C214.4,66.1,213.8,59.9,210.2,55.4z
						 M187.5,72.6l-2.6,9.3h-10.5l2.3-7.9c1.1-4.1,3.4-5.6,7.6-5.6c1.7,0,2.9,0.2,3.3,0.7C187.9,69.7,187.9,70.9,187.5,72.6z"/>
					<path class="st39" d="M277.5,55.4c-3.9-5.1-11.3-7.7-21.8-7.7c-19.7,0-32,8.6-36.5,25.6l-10.6,39.6c-2.2,8.2-1.5,14.7,2,19.3
						c3.9,5.1,11.3,7.7,21.8,7.7c19.7,0,32-8.6,36.5-25.6l1.1-4l0.9-3.3h-25.1l-0.5,2l-1.1,4c-1.1,4.2-3.4,6-7.5,6
						c-1.7,0-2.9-0.3-3.3-0.9c-0.4-0.6-0.4-2.7,0-4.4l2.6-10.6h35.6l0.5-1.2l7.4-27.3C281.6,66.1,281,59.9,277.5,55.4z M254.7,72.6
						l-2.6,9.3h-10.5l2.3-7.9c1.1-4.1,3.4-5.6,7.5-5.6c1.7,0,2.9,0.2,3.3,0.7C255.2,69.7,255.2,70.9,254.7,72.6z"/>
				</g>
			</g>
			<g class="st40">
				<g>
					<g>
						<defs>
							<path id="SVGID_67_" d="M594.7,107.3C343.7,125,95.3,109.6-151.7,61.4c15.2-43,30.4-86,45.6-129.1
								C117.6-16.8,343.1,3.8,572.3-5.1C579.8,32.3,587.2,69.8,594.7,107.3z"/>
						</defs>
						<clipPath id="SVGID_68_">
							<use xlink:href="#SVGID_67_"  style="overflow:visible;"/>
						</clipPath>
						<g style="clip-path:url(#SVGID_68_);">
							
								<image style="overflow:visible;" width="3111" height="759" xlink:href="B54101A9.png"  transform="matrix(0.24 0 0 0.24 -151.6927 -67.6129)">
							</image>
						</g>
					</g>
				</g>
			</g>
			<g class="st33">
				<defs>
					<path id="SVGID_69_" d="M338.2,106.3c3.1-11.6-0.7-21.8-11.2-30.3c-8.7-7.1-12.7-13-11.6-17.1l2.1-7.9c1.1-4.1,3.4-6,7.5-6
						c1.7,0,2.9,0.3,3.3,0.9c0.5,0.6,0.5,2,0,3.8l-2.1,8.5l-0.9,3.8h3.4h19.8h2l0.5-2.5l2.1-8.2c2.2-8.2,1.5-14.9-2-19.4
						c-3.9-5.1-11.2-7.7-21.8-7.7c-19.7,0-32,8.6-36.5,25.6l-2.1,7.9c-3.1,11.6,0.7,21.8,11.2,30.3c8.7,7.1,12.7,13,11.6,17.1
						l-2.1,7.9c-1.1,4.1-3.4,6-7.5,6c-1.7,0-2.9-0.3-3.3-0.9c-0.5-0.6-0.5-2,0-3.8l2.1-8l0.9-3.3h-3.4h-19.8h-2l-0.5,2l-2.1,8
						c-2.2,8.2-1.5,14.7,2,19.3c3.9,5.1,11.2,7.7,21.8,7.7c19.7,0,32-8.6,36.5-25.6L338.2,106.3z"/>
				</defs>
				<defs>
					<path id="SVGID_70_" d="M411.9,55.4c-3.9-5.1-11.3-7.7-21.8-7.7c-1.7,0-3.3,0.2-4.7,0.7l5.7-21.2l0.9-3.3h-3.4h-19.8h-2
						l-0.5,1.9l-29.7,111.3l-0.9,3.8h3.4h19.8h2l0.5-2.4l17-63.5c1.1-4.1,3.4-6.1,7.5-6.1c1.7,0,2.9,0.3,3.3,0.8
						c0.5,0.6,0.5,2,0,3.7l-17,63.8l-0.9,3.8h3.4h19.8h2l0.5-2.4l17-63.5C416.1,66.7,415.4,60,411.9,55.4z"/>
				</defs>
				<defs>
					<path id="SVGID_71_" d="M479.2,55.4c-3.9-5.1-11.3-7.7-21.8-7.7c-19.7,0-32,8.6-36.5,25.6l-10.6,39.6c-2.2,8.2-1.5,14.7,2,19.3
						c3.9,5.1,11.3,7.7,21.8,7.7c19.7,0,32-8.6,36.5-25.6l10.6-39.6C483.3,66.4,482.7,59.9,479.2,55.4z M456.4,73.3l-10.6,39.6
						c-1.1,4.1-3.4,6-7.5,6c-1.7,0-2.9-0.3-3.3-0.9c-0.5-0.6-0.5-2,0-3.8l10.6-39.6c1.1-4.1,3.4-6,7.5-6c1.7,0,2.9,0.3,3.3,0.9
						C456.9,70.2,456.9,71.6,456.4,73.3z"/>
				</defs>
				<defs>
					<path id="SVGID_72_" d="M546.4,55.4c-3.9-5.1-11.3-7.7-21.8-7.7c-1.7,0-3.3,0.3-4.7,0.8l0.2-0.6h-25.1l-0.5,1.8L464.7,161
						l-0.9,3.9H489l0.5-2.6l6.2-23.5c1.4,0.9,3.3,1.1,5.6,1.1c19.7,0,32-8.7,36.5-25.7l10.6-39.6C550.6,66.5,549.9,59.9,546.4,55.4z
						 M523.6,73.3L513,112.9c-1.1,4.1-3.4,6-7.5,6c-1.7,0-2.9-0.3-3.3-0.9c-0.5-0.6-0.5-2,0-3.8l10.6-39.6c1.1-4.1,3.4-6,7.5-6
						c1.7,0,2.9,0.3,3.3,0.9C524.1,70.2,524.1,71.6,523.6,73.3z"/>
				</defs>
				<clipPath id="SVGID_73_">
					<use xlink:href="#SVGID_69_"  style="overflow:visible;"/>
				</clipPath>
				<clipPath id="SVGID_74_" class="st41">
					<use xlink:href="#SVGID_70_"  style="overflow:visible;"/>
				</clipPath>
				<clipPath id="SVGID_75_" class="st42">
					<use xlink:href="#SVGID_71_"  style="overflow:visible;"/>
				</clipPath>
				<clipPath id="SVGID_76_" class="st43">
					<use xlink:href="#SVGID_72_"  style="overflow:visible;"/>
				</clipPath>
				<polygon class="st44" points="155.2,23.9 135.4,23.9 133.7,23.9 133.1,25.5 112,76.9 118.2,26.8 118.6,23.9 115.7,23.9 
					95.9,23.9 94.2,23.9 93.5,25.5 72.4,76.9 78.7,26.8 79.1,23.9 76.1,23.9 56.4,23.9 54,23.9 53.8,26.3 43.9,137.6 43.6,140.9 
					46.5,140.9 66.2,140.9 67.9,140.9 68.6,138.9 87,97.3 83.4,137.7 83.2,140.9 86,140.9 105.8,140.9 107.5,140.9 108.1,138.9 
					157.6,27.8 159.2,23.9 				"/>
				<g class="st45">
					<path class="st39" d="M210.2,55.4c-3.9-5.1-11.3-7.7-21.8-7.7c-19.7,0-32,8.6-36.5,25.6l-10.6,39.6c-2.2,8.2-1.5,14.7,2,19.3
						c3.9,5.1,11.3,7.7,21.8,7.7c19.7,0,32-8.6,36.5-25.6l1.1-4l0.9-3.3h-25.1l-0.5,2l-1.1,4c-1.1,4.2-3.4,6-7.5,6
						c-1.7,0-2.9-0.3-3.3-0.9c-0.4-0.6-0.4-2.7,0-4.4l2.7-10.6h35.6l0.5-1.2l7.4-27.3C214.4,66.1,213.8,59.9,210.2,55.4z
						 M187.5,72.6l-2.6,9.3h-10.5l2.3-7.9c1.1-4.1,3.4-5.6,7.6-5.6c1.7,0,2.9,0.2,3.3,0.7C187.9,69.7,187.9,70.9,187.5,72.6z"/>
					<path class="st39" d="M277.5,55.4c-3.9-5.1-11.3-7.7-21.8-7.7c-19.7,0-32,8.6-36.5,25.6l-10.6,39.6c-2.2,8.2-1.5,14.7,2,19.3
						c3.9,5.1,11.3,7.7,21.8,7.7c19.7,0,32-8.6,36.5-25.6l1.1-4l0.9-3.3h-25.1l-0.5,2l-1.1,4c-1.1,4.2-3.4,6-7.5,6
						c-1.7,0-2.9-0.3-3.3-0.9c-0.4-0.6-0.4-2.7,0-4.4l2.6-10.6h35.6l0.5-1.2l7.4-27.3C281.6,66.1,281,59.9,277.5,55.4z M254.7,72.6
						l-2.6,9.3h-10.5l2.3-7.9c1.1-4.1,3.4-5.6,7.5-5.6c1.7,0,2.9,0.2,3.3,0.7C255.2,69.7,255.2,70.9,254.7,72.6z"/>
				</g>
			</g>
		</g>
		<g>
			<defs>
				<path id="SVGID_77_" d="M411.9,55.4c-3.9-5.1-11.3-7.7-21.8-7.7c-1.7,0-3.3,0.2-4.7,0.7l5.7-21.2l0.9-3.3h-3.4h-19.8h-2
					l-0.5,1.9l-29.7,111.3l-0.9,3.8h3.4h19.8h2l0.5-2.4l17-63.5c1.1-4.1,3.4-6.1,7.5-6.1c1.7,0,2.9,0.3,3.3,0.8c0.5,0.6,0.5,2,0,3.7
					l-17,63.8l-0.9,3.8h3.4h19.8h2l0.5-2.4l17-63.5C416.1,66.7,415.4,60,411.9,55.4z"/>
			</defs>
			<clipPath id="SVGID_78_">
				<use xlink:href="#SVGID_77_"  style="overflow:visible;"/>
			</clipPath>
			<path class="st46" d="M411.9,55.4c-3.9-5.1-11.3-7.7-21.8-7.7c-1.7,0-3.3,0.2-4.7,0.7l5.7-21.2l0.9-3.3h-3.4h-19.8h-2l-0.5,1.9
				l-29.7,111.3l-0.9,3.8h3.4h19.8h2l0.5-2.4l17-63.5c1.1-4.1,3.4-6.1,7.5-6.1c1.7,0,2.9,0.3,3.3,0.8c0.5,0.6,0.5,2,0,3.7l-17,63.8
				l-0.9,3.8h3.4h19.8h2l0.5-2.4l17-63.5C416.1,66.7,415.4,60,411.9,55.4z"/>
			<g class="st47">
				<g>
					<g>
						<defs>
							<path id="SVGID_79_" d="M594.7,107.3C343.7,125,95.3,109.6-151.7,61.4c15.2-43,30.4-86,45.6-129.1
								C117.6-16.8,343.1,3.8,572.3-5.1C579.8,32.3,587.2,69.8,594.7,107.3z"/>
						</defs>
						<clipPath id="SVGID_80_">
							<use xlink:href="#SVGID_79_"  style="overflow:visible;"/>
						</clipPath>
						<g style="clip-path:url(#SVGID_80_);">
							
								<image style="overflow:visible;" width="3111" height="759" xlink:href="B54101AA.png"  transform="matrix(0.24 0 0 0.24 -151.6927 -67.6129)">
							</image>
						</g>
					</g>
				</g>
			</g>
		</g>
		<g>
			<defs>
				<path id="SVGID_81_" d="M479.2,55.4c-3.9-5.1-11.3-7.7-21.8-7.7c-19.7,0-32,8.6-36.5,25.6l-10.6,39.6c-2.2,8.2-1.5,14.7,2,19.3
					c3.9,5.1,11.3,7.7,21.8,7.7c19.7,0,32-8.6,36.5-25.6l10.6-39.6C483.3,66.4,482.7,59.9,479.2,55.4z M456.4,73.3l-10.6,39.6
					c-1.1,4.1-3.4,6-7.5,6c-1.7,0-2.9-0.3-3.3-0.9c-0.5-0.6-0.5-2,0-3.8l10.6-39.6c1.1-4.1,3.4-6,7.5-6c1.7,0,2.9,0.3,3.3,0.9
					C456.9,70.2,456.9,71.6,456.4,73.3z"/>
			</defs>
			<clipPath id="SVGID_82_">
				<use xlink:href="#SVGID_81_"  style="overflow:visible;"/>
			</clipPath>
			<path class="st48" d="M479.2,55.4c-3.9-5.1-11.3-7.7-21.8-7.7c-19.7,0-32,8.6-36.5,25.6l-10.6,39.6c-2.2,8.2-1.5,14.7,2,19.3
				c3.9,5.1,11.3,7.7,21.8,7.7c19.7,0,32-8.6,36.5-25.6l10.6-39.6C483.3,66.4,482.7,59.9,479.2,55.4z M456.4,73.3l-10.6,39.6
				c-1.1,4.1-3.4,6-7.5,6c-1.7,0-2.9-0.3-3.3-0.9c-0.5-0.6-0.5-2,0-3.8l10.6-39.6c1.1-4.1,3.4-6,7.5-6c1.7,0,2.9,0.3,3.3,0.9
				C456.9,70.2,456.9,71.6,456.4,73.3z"/>
			<g class="st49">
				<g>
					<g>
						<defs>
							<path id="SVGID_83_" d="M594.7,107.3C343.7,125,95.3,109.6-151.7,61.4c15.2-43,30.4-86,45.6-129.1
								C117.6-16.8,343.1,3.8,572.3-5.1C579.8,32.3,587.2,69.8,594.7,107.3z"/>
						</defs>
						<clipPath id="SVGID_84_">
							<use xlink:href="#SVGID_83_"  style="overflow:visible;"/>
						</clipPath>
						<g style="clip-path:url(#SVGID_84_);">
							
								<image style="overflow:visible;" width="3111" height="759" xlink:href="B54101A8.png"  transform="matrix(0.24 0 0 0.24 -151.6927 -67.6129)">
							</image>
						</g>
					</g>
				</g>
			</g>
		</g>
		<g>
			<defs>
				<path id="SVGID_85_" d="M546.4,55.4c-3.9-5.1-11.3-7.7-21.8-7.7c-1.7,0-3.3,0.3-4.7,0.8l0.2-0.6h-25.1l-0.5,1.8L464.7,161
					l-0.9,3.9H489l0.5-2.6l6.2-23.5c1.4,0.9,3.3,1.1,5.6,1.1c19.7,0,32-8.7,36.5-25.7l10.6-39.6C550.6,66.5,549.9,59.9,546.4,55.4z
					 M523.6,73.3L513,112.9c-1.1,4.1-3.4,6-7.5,6c-1.7,0-2.9-0.3-3.3-0.9c-0.5-0.6-0.5-2,0-3.8l10.6-39.6c1.1-4.1,3.4-6,7.5-6
					c1.7,0,2.9,0.3,3.3,0.9C524.1,70.2,524.1,71.6,523.6,73.3z"/>
			</defs>
			<clipPath id="SVGID_86_">
				<use xlink:href="#SVGID_85_"  style="overflow:visible;"/>
			</clipPath>
			<path class="st50" d="M546.4,55.4c-3.9-5.1-11.3-7.7-21.8-7.7c-1.7,0-3.3,0.3-4.7,0.8l0.2-0.6h-25.1l-0.5,1.8L464.7,161l-0.9,3.9
				H489l0.5-2.6l6.2-23.5c1.4,0.9,3.3,1.1,5.6,1.1c19.7,0,32-8.7,36.5-25.7l10.6-39.6C550.6,66.5,549.9,59.9,546.4,55.4z
				 M523.6,73.3L513,112.9c-1.1,4.1-3.4,6-7.5,6c-1.7,0-2.9-0.3-3.3-0.9c-0.5-0.6-0.5-2,0-3.8l10.6-39.6c1.1-4.1,3.4-6,7.5-6
				c1.7,0,2.9,0.3,3.3,0.9C524.1,70.2,524.1,71.6,523.6,73.3z"/>
			<g class="st51">
				<g>
					<g>
						<defs>
							<path id="SVGID_87_" d="M594.7,107.3C343.7,125,95.3,109.6-151.7,61.4c15.2-43,30.4-86,45.6-129.1
								C117.6-16.8,343.1,3.8,572.3-5.1C579.8,32.3,587.2,69.8,594.7,107.3z"/>
						</defs>
						<clipPath id="SVGID_88_">
							<use xlink:href="#SVGID_87_"  style="overflow:visible;"/>
						</clipPath>
						<g style="clip-path:url(#SVGID_88_);">
							
								<image style="overflow:visible;" width="3111" height="759" xlink:href="B54101A6.png"  transform="matrix(0.24 0 0 0.24 -151.6927 -67.6129)">
							</image>
						</g>
					</g>
				</g>
			</g>
		</g>
	</g>
</g>
</svg>
