<?xml version="1.0" encoding="utf-8"?>
<!-- Generator: Adobe Illustrator 19.2.1, SVG Export Plug-In . SVG Version: 6.00 Build 0)  -->
<svg version="1.1" id="Calque_1" xmlns="http://www.w3.org/2000/svg" xmlns:xlink="http://www.w3.org/1999/xlink" x="0px" y="0px"
	 viewBox="0 0 128 46" style="enable-background:new 0 0 128 46;" xml:space="preserve">
<style type="text/css">
	.st0{clip-path:url(#SVGID_2_);fill-rule:evenodd;clip-rule:evenodd;fill:#DD0000;}
	.st1{clip-path:url(#SVGID_4_);fill-rule:evenodd;clip-rule:evenodd;fill:#DD0000;}
	.st2{clip-path:url(#SVGID_6_);fill-rule:evenodd;clip-rule:evenodd;fill:#DD0000;}
	.st3{clip-path:url(#SVGID_8_);fill-rule:evenodd;clip-rule:evenodd;fill:#DD0000;}
	.st4{clip-path:url(#SVGID_10_);fill-rule:evenodd;clip-rule:evenodd;fill:#DD0000;}
	.st5{clip-path:url(#SVGID_12_);fill-rule:evenodd;clip-rule:evenodd;fill:#DD0000;}
	.st6{clip-path:url(#SVGID_14_);fill-rule:evenodd;clip-rule:evenodd;fill:#DD0000;}
	.st7{clip-path:url(#SVGID_16_);fill-rule:evenodd;clip-rule:evenodd;fill:#DD0000;}
	.st8{clip-path:url(#SVGID_18_);fill-rule:evenodd;clip-rule:evenodd;fill:#DD0000;}
</style>
<g id="Logo_1_">
	<g>
		<defs>
			<path id="SVGID_1_" d="M13,24h-0.7c-1.9,0-2.6,0.6-2.6,1.6c0,0.9,0.4,1.4,1.8,1.4c0.9,0,1.5-0.4,1.5-1.7V24z M11.1,30.5
				c-2.8,0-6.1-1.9-6.1-5.1c0-3.2,2.3-5.4,7.5-5.4H13v0.6c0-1.2-0.8-1.8-2.8-1.8c-2.7,0-3.6,1.2-4.6,1.2H6v-1c0-1.8,1.6-3.5,5.7-3.5
				c3.9,0,6.3,2,6.3,6.2v2.2C18,29.1,16.3,30.5,11.1,30.5z"/>
		</defs>
		<clipPath id="SVGID_2_">
			<use xlink:href="#SVGID_1_"  style="overflow:visible;"/>
		</clipPath>
		<rect x="3" y="14" class="st0" width="16" height="18"/>
	</g>
	<g>
		<defs>
			<path id="SVGID_3_" d="M25.3,30.4c-2.6,0-5.3-1.6-5.3-4.9V11h2.3c2.2,0,2.7,0.9,2.7,3.3v10.4c0,1.3,1.2,2.3,2.6,2.3H29v1.1
				C29,29.8,26.9,30.4,25.3,30.4"/>
		</defs>
		<clipPath id="SVGID_4_">
			<use xlink:href="#SVGID_3_"  style="overflow:visible;"/>
		</clipPath>
		<rect x="19" y="10" class="st1" width="11" height="22"/>
	</g>
	<g>
		<defs>
			<path id="SVGID_5_" d="M31.8,13.1c0.6-0.5,1.7-1.1,2.7-1.1H35v4h4v1.6c0,1.2-1.1,2.4-2.2,2.4H35v4.9c0,1,0.6,2,1.6,2
				c1.2,0,1.7,0.1,2.3,0.1H39v1.1c0,1.2-1.2,2.3-3.8,2.3c-2.4,0-5.2-1.2-5.2-5.1v-8.9C30,15.1,30.9,13.9,31.8,13.1"/>
		</defs>
		<clipPath id="SVGID_6_">
			<use xlink:href="#SVGID_5_"  style="overflow:visible;"/>
		</clipPath>
		<rect x="29" y="11" class="st2" width="11" height="21"/>
	</g>
	<g>
		<defs>
			<path id="SVGID_7_" d="M47.9,18.8c-1.7,0-2.5,1.2-2.6,2.2h1.9c2.3,0,2.8-0.2,2.8-0.8C50,19.4,49.4,18.8,47.9,18.8z M47.6,25h-2.1
				c0.3,2,1.5,2,3.5,2c2.3,0,3.7,0,4.5-1H53v1.1c0,1.8-1.1,3.5-5.2,3.5c-4.9,0-7.4-3.3-7.4-7.3c0-4.3,3-7.9,7.4-7.9
				c3.7,0,6.7,2.2,6.7,5.9C54.5,24.1,52.4,25,47.6,25z"/>
		</defs>
		<clipPath id="SVGID_8_">
			<use xlink:href="#SVGID_7_"  style="overflow:visible;"/>
		</clipPath>
		<rect x="39" y="14" class="st3" width="17" height="18"/>
	</g>
	<g>
		<defs>
			<path id="SVGID_9_" d="M65.9,19.4c-0.6,0-1.6-0.2-2.2-0.2c-1.2,0-2.6,0.7-2.6,2.4V30h-0.6c-2.1,0-2.4-0.8-2.4-3.2v-6.2
				c0-2.9,1.5-5.2,4.8-5.2c2.5,0,3.2,1,3.2,2.3v1.6l0,0"/>
		</defs>
		<clipPath id="SVGID_10_">
			<use xlink:href="#SVGID_9_"  style="overflow:visible;"/>
		</clipPath>
		<rect x="56" y="14" class="st4" width="12" height="17"/>
	</g>
	<g>
		<defs>
			<path id="SVGID_11_" d="M74.5,19.2c-1.4,0-2.4,1.3-2.4,3.4c0,3,1.3,4.1,3,4.1c1.6,0,2.4-1.4,2.4-3.5
				C77.4,20.1,76.5,19.2,74.5,19.2z M75.6,30.6c-1.9,0-3.6-0.9-3.6-1.9V34h-1.8c-2,0-2.2-0.5-2.2-2.9v-7.6c0-5.1,2.4-8.1,7.5-8.1
				c4.2,0,7.1,2.8,7.1,7.2C82.6,27.6,79.5,30.6,75.6,30.6z"/>
		</defs>
		<clipPath id="SVGID_12_">
			<use xlink:href="#SVGID_11_"  style="overflow:visible;"/>
		</clipPath>
		<rect x="66" y="14" class="st5" width="18" height="22"/>
	</g>
	<g>
		<defs>
			<path id="SVGID_13_" d="M89.8,30.4c-2.6,0-4.8-1.6-4.8-4.9V11h1.6c2.2,0,2.4,0.9,2.4,3.3v10.4c0,1.3,1.5,2.3,2.9,2.3H93v1.1
				C93,29.8,91.4,30.4,89.8,30.4"/>
		</defs>
		<clipPath id="SVGID_14_">
			<use xlink:href="#SVGID_13_"  style="overflow:visible;"/>
		</clipPath>
		<rect x="83" y="10" class="st6" width="12" height="22"/>
	</g>
	<g>
		<defs>
			<path id="SVGID_15_" d="M103,24h-1.6c-1.9,0-2.6,0.6-2.6,1.6c0,0.9,0.9,1.4,2.2,1.4c0.9,0,2-0.4,2-1.7V24z M100.7,30.5
				c-2.8,0-6.3-1.9-6.3-5.1c0-3.2,2.1-5.4,7.3-5.4h1.4v0.6c0-1.2-1.3-1.8-3.2-1.8c-2.7,0-4,1.2-5,1.2H95v-1c0-1.8,2.1-3.5,6.2-3.5
				c3.9,0,6.8,2,6.8,6.2v2.2C108,29.1,105.9,30.5,100.7,30.5z"/>
		</defs>
		<clipPath id="SVGID_16_">
			<use xlink:href="#SVGID_15_"  style="overflow:visible;"/>
		</clipPath>
		<rect x="92" y="14" class="st7" width="16" height="18"/>
	</g>
	<g>
		<defs>
			<path id="SVGID_17_" d="M120.1,26.4c-4,7.7-5.1,8.5-8.1,8.5c-1.6,0-3-0.9-3-2.5v-1.2l2.2-0.2c1.3-0.1,1.9-0.5,2.5-1.7
				c-2.1-3.1-4.6-9.3-5.2-13.3h2.6c1.2,0,2.5,0.7,2.8,2c0.5,2.3,1.5,5.1,2.2,6.8c1.1-2.2,2.2-4.7,2.5-8.7h2.4c1.4,0,2.1,0.6,2.1,1.7
				C123,19.3,121.7,23.3,120.1,26.4"/>
		</defs>
		<clipPath id="SVGID_18_">
			<use xlink:href="#SVGID_17_"  style="overflow:visible;"/>
		</clipPath>
		<rect x="108" y="14" class="st8" width="17" height="22"/>
	</g>
</g>
</svg>
