<?xml version="1.0" encoding="utf-8"?>
<!-- Generator: Adobe Illustrator 19.2.1, SVG Export Plug-In . SVG Version: 6.00 Build 0)  -->
<svg version="1.1" id="Calque_1" xmlns="http://www.w3.org/2000/svg" xmlns:xlink="http://www.w3.org/1999/xlink" x="0px" y="0px"
	 viewBox="0 0 128 46" style="enable-background:new 0 0 128 46;" xml:space="preserve">
<style type="text/css">
	.st0{clip-path:url(#SVGID_1_);fill-rule:evenodd;clip-rule:evenodd;fill:#FFFFFF;}
	.st1{clip-path:url(#SVGID_2_);fill-rule:evenodd;clip-rule:evenodd;fill:#FFFFFF;}
	.st2{clip-path:url(#SVGID_3_);fill-rule:evenodd;clip-rule:evenodd;fill:#FFFFFF;}
	.st3{clip-path:url(#SVGID_4_);fill-rule:evenodd;clip-rule:evenodd;fill:#FFFFFF;}
	.st4{clip-path:url(#SVGID_5_);fill-rule:evenodd;clip-rule:evenodd;fill:#FFFFFF;}
	.st5{clip-path:url(#SVGID_6_);fill-rule:evenodd;clip-rule:evenodd;fill:#FFFFFF;}
	.st6{clip-path:url(#SVGID_7_);fill-rule:evenodd;clip-rule:evenodd;fill:#FFFFFF;}
	.st7{clip-path:url(#SVGID_8_);fill-rule:evenodd;clip-rule:evenodd;fill:#FFFFFF;}
	.st8{clip-path:url(#SVGID_9_);fill-rule:evenodd;clip-rule:evenodd;fill:#FFFFFF;}
</style>
<g id="Logo">
	<g>
		<defs>
			<path id="SVGID_19_" d="M11,24H9.2c-2,0-2.8,0.7-2.8,1.8c0,1,1,1.6,2.4,1.6c0.9,0,2.1-0.3,2.1-1.7V24z M7.9,31.1
				c-2.9,0-6.4-1.5-6.4-4.9c0-3.4,2.5-5.2,8-5.2H11v-0.4c0-1.2-1.4-1.4-3.4-1.4c-2.8,0-4.3,0.8-5.4,1.8H2v-2.1
				c0-1.9,1.9-3.7,6.2-3.7c4.2,0,6.8,2.1,6.8,6.6V24C15,29.5,13.4,31.1,7.9,31.1z"/>
		</defs>
		<use xlink:href="#SVGID_19_"  style="overflow:visible;fill-rule:evenodd;clip-rule:evenodd;fill:#FFFFFF;"/>
		<clipPath id="SVGID_1_">
			<use xlink:href="#SVGID_19_"  style="overflow:visible;"/>
		</clipPath>
		<rect y="13" class="st0" width="16" height="20"/>
	</g>
	<g>
		<defs>
			<path id="SVGID_21_" d="M23.4,30.9c-2.8,0-5.4-1.7-5.4-5.2V10h1.9c2.3,0,3.1,1.4,3.1,3.9v11c0,1.3,1,1.1,2.5,1.1H27v2.5
				C27,30.3,25,30.9,23.4,30.9"/>
		</defs>
		<use xlink:href="#SVGID_21_"  style="overflow:visible;fill-rule:evenodd;clip-rule:evenodd;fill:#FFFFFF;"/>
		<clipPath id="SVGID_2_">
			<use xlink:href="#SVGID_21_"  style="overflow:visible;"/>
		</clipPath>
		<rect x="16" y="8" class="st1" width="12" height="25"/>
	</g>
	<g>
		<defs>
			<path id="SVGID_23_" d="M30,13c0.7-0.5,1.8-1,2.9-1H34v3h4v2.4c0,1.3-1.6,2.6-2.8,2.6H34v5.2c0,1,0.3,1.4,1.3,1.4
				c1.2,0,1.5-0.6,2.1-0.6H38v2.5c0,1.3-1.5,2.4-4.3,2.4c-2.6,0-5.7-1.2-5.7-5.4v-9.4C28,14.8,28.9,13.7,30,13"/>
		</defs>
		<use xlink:href="#SVGID_23_"  style="overflow:visible;fill-rule:evenodd;clip-rule:evenodd;fill:#FFFFFF;"/>
		<clipPath id="SVGID_3_">
			<use xlink:href="#SVGID_23_"  style="overflow:visible;"/>
		</clipPath>
		<rect x="27" y="10" class="st2" width="12" height="23"/>
	</g>
	<g>
		<defs>
			<path id="SVGID_25_" d="M47,18.7c-1.8,0-2.6,1.3-2.8,2.3h2c2.5,0,2.9-0.2,2.9-0.9C49.2,19.3,48.5,18.7,47,18.7z M46.7,24h-2.3
				c0.3,2,1.5,2.1,3.7,2.1c2.4,0,3.9-0.1,4.8-1.1H53v2.5c0,1.9-1.5,3.7-5.8,3.7c-5.2,0-8-3.5-8-7.7c0-4.6,3.1-8.3,7.8-8.3
				c4,0,7,1.7,7,5.6C54,23.7,51.8,24,46.7,24z"/>
		</defs>
		<use xlink:href="#SVGID_25_"  style="overflow:visible;fill-rule:evenodd;clip-rule:evenodd;fill:#FFFFFF;"/>
		<clipPath id="SVGID_4_">
			<use xlink:href="#SVGID_25_"  style="overflow:visible;"/>
		</clipPath>
		<rect x="38" y="13" class="st3" width="17" height="20"/>
	</g>
	<g>
		<defs>
			<path id="SVGID_27_" d="M65.9,19.3c-0.7,0-1.1-0.2-1.8-0.2c-1.3,0-2.2,0.7-2.2,2.6V31h-1.8C58,31,56,29.7,56,27.1v-6.6
				c0-3.1,2.4-5.5,5.8-5.5c2.6,0,4.2,1.1,4.2,2.5L65.9,19.3L65.9,19.3"/>
		</defs>
		<use xlink:href="#SVGID_27_"  style="overflow:visible;fill-rule:evenodd;clip-rule:evenodd;fill:#FFFFFF;"/>
		<clipPath id="SVGID_5_">
			<use xlink:href="#SVGID_27_"  style="overflow:visible;"/>
		</clipPath>
		<rect x="55" y="13" class="st4" width="12" height="19"/>
	</g>
	<g>
		<defs>
			<path id="SVGID_29_" d="M75.1,19.1c-1.4,0-2.6,1.4-2.6,3.6c0,3.2,1.4,4.3,3.2,4.3c1.7,0,2.6-1.5,2.6-3.7
				C78.3,20.1,77.3,19.1,75.1,19.1z M76.6,31.1c-2,0-3.6-0.9-3.6-2.1V35h-2.4c-2.1,0-3.6-0.7-3.6-3.3v-8c0-5.4,3.2-8.6,8.5-8.6
				c4.4,0,8,3,8,7.7C83.5,28,80.7,31.1,76.6,31.1z"/>
		</defs>
		<use xlink:href="#SVGID_29_"  style="overflow:visible;fill-rule:evenodd;clip-rule:evenodd;fill:#FFFFFF;"/>
		<clipPath id="SVGID_6_">
			<use xlink:href="#SVGID_29_"  style="overflow:visible;"/>
		</clipPath>
		<rect x="66" y="13" class="st5" width="20" height="24"/>
	</g>
	<g>
		<defs>
			<path id="SVGID_31_" d="M91.4,30.9c-2.8,0-4.4-1.7-4.4-5.2V10h1c2.3,0,3,1.4,3,3.9v11c0,1.3,1.1,1.1,2.6,1.1H94v2.5
				C94,30.3,93,30.9,91.4,30.9"/>
		</defs>
		<use xlink:href="#SVGID_31_"  style="overflow:visible;fill-rule:evenodd;clip-rule:evenodd;fill:#FFFFFF;"/>
		<clipPath id="SVGID_7_">
			<use xlink:href="#SVGID_31_"  style="overflow:visible;"/>
		</clipPath>
		<rect x="85" y="8" class="st6" width="12" height="25"/>
	</g>
	<g>
		<defs>
			<path id="SVGID_33_" d="M105,24h-1.4c-2,0-2.8,0.7-2.8,1.8c0,1,0.8,1.6,2.2,1.6c0.9,0,1.9-0.3,1.9-1.7V24z M102.6,31.1
				c-2.9,0-6.6-1.5-6.6-4.9c0-3.4,2.3-5.2,7.8-5.2h1.2v-0.4c0-1.2-1.2-1.4-3.2-1.4c-2.8,0-4.1,0.8-5.2,1.8H97v-2.1
				c0-1.9,1.9-3.7,6.2-3.7c4.2,0,6.8,2.1,6.8,6.6V24C110,29.5,108.1,31.1,102.6,31.1z"/>
		</defs>
		<use xlink:href="#SVGID_33_"  style="overflow:visible;fill-rule:evenodd;clip-rule:evenodd;fill:#FFFFFF;"/>
		<clipPath id="SVGID_8_">
			<use xlink:href="#SVGID_33_"  style="overflow:visible;"/>
		</clipPath>
		<rect x="94" y="13" class="st7" width="17" height="20"/>
	</g>
	<g>
		<defs>
			<path id="SVGID_35_" d="M123.4,26.7c-4.2,8.1-5.2,9-8.4,9c-1.7,0-3-0.9-3-2.6v-1.3l2.2-0.2c1.4-0.1,2-0.9,2.5-2.2
				c-2.2-3.2-5-9.5-5.6-14.5h2.7c1.3,0,2.6,1.1,2.9,2.4c0.5,2.4,1.6,5.2,2.4,7c1.1-2.3,2.3-5.4,2.6-9.4h2.5c1.5,0,2.2,1,2.2,2.2
				C126.5,18.8,125.1,23.5,123.4,26.7"/>
		</defs>
		<use xlink:href="#SVGID_35_"  style="overflow:visible;fill-rule:evenodd;clip-rule:evenodd;fill:#FFFFFF;"/>
		<clipPath id="SVGID_9_">
			<use xlink:href="#SVGID_35_"  style="overflow:visible;"/>
		</clipPath>
		<rect x="110" y="14" class="st8" width="18" height="23"/>
	</g>
</g>
</svg>
